mtllib vendor.mtl
o Cube
usemtl Material
v 1 0.010000000000000009 0
v 1 0.010000000000000009 0.5
v 0 0.010000000000000009 0.5
v 1 0.010000000000000009 0
v 0 0.010000000000000009 0.5
v 0 0.010000000000000009 0
v 1 1.01 5.066394805908203e-7
v 0 1.01 0
v 0 1.01 0.09999498724937439
v 1 1.01 5.066394805908203e-7
v 0 1.01 0.09999498724937439
v 0.9999994933605194 1.01 0.10000500082969666
v 1 0.7550000047683716 0
v 1 1.01 5.066394805908203e-7
v 0.9999994933605194 1.01 0.10000500082969666
v 1 0.7550000047683716 0
v 0.9999994933605194 1.01 0.10000500082969666
v 1 0.7550000047683716 0.09999999403953552
v 1 0.7550000047683716 0.09999999403953552
v 0.9999994933605194 1.01 0.10000500082969666
v 0 1.01 0.09999498724937439
v 1 0.7550000047683716 0.09999999403953552
v 0 1.01 0.09999498724937439
v 0 0.7550000047683716 0.09999999403953552
v 0 0.7550000047683716 0.09999999403953552
v 0 1.01 0.09999498724937439
v 0 1.01 0
v 0 0.7550000047683716 0.09999999403953552
v 0 1.01 0
v 0 0.7550000047683716 0
v 1 0.1600000059604645 0
v 1 0.010000000000000009 0
v 0 0.010000000000000009 0
v 1 0.1600000059604645 0
v 0 0.010000000000000009 0
v 0 0.1600000059604645 0
v 1 0.010000000000000009 0
v 1 0.1600000059604645 0
v 1 0.1600000059604645 0.5
v 1 0.010000000000000009 0
v 1 0.1600000059604645 0.5
v 1 0.010000000000000009 0.5
v 1 0.010000000000000009 0.5
v 1 0.1600000059604645 0.5
v 0 0.1600000059604645 0.5
v 1 0.010000000000000009 0.5
v 0 0.1600000059604645 0.5
v 0 0.010000000000000009 0.5
v 0 0.010000000000000009 0.5
v 0 0.1600000059604645 0.5
v 0 0.1600000059604645 0
v 0 0.010000000000000009 0.5
v 0 0.1600000059604645 0
v 0 0.010000000000000009 0
v 1 0.7550000047683716 0
v 1 0.1600000059604645 0
v 0 0.1600000059604645 0
v 1 0.7550000047683716 0
v 0 0.1600000059604645 0
v 0 0.7550000047683716 0
v 1 0.1600000059604645 0
v 1 0.7550000047683716 0
v 1 0.7550000047683716 0.09999999403953552
v 1 0.1600000059604645 0
v 1 0.7550000047683716 0.09999999403953552
v 1 0.1600000059604645 0.5
v 1 0.1600000059604645 0.5
v 1 0.7550000047683716 0.09999999403953552
v 0 0.7550000047683716 0.09999999403953552
v 1 0.1600000059604645 0.5
v 0 0.7550000047683716 0.09999999403953552
v 0 0.1600000059604645 0.5
v 0 0.1600000059604645 0.5
v 0 0.7550000047683716 0.09999999403953552
v 0 0.7550000047683716 0
v 0 0.1600000059604645 0.5
v 0 0.7550000047683716 0
v 0 0.1600000059604645 0
v 1 1.01 5.066394805908203e-7
v 1 0.7550000047683716 0
v 0 0.7550000047683716 0
v 1 1.01 5.066394805908203e-7
v 0 0.7550000047683716 0
v 0 1.01 0
vt 0.7963230013847351 0.9651340246200562
vt 0.5551570057868958 0.9651340246200562
vt 0.5551570057868958 0.48280298709869385
vt 0.7963230013847351 0.9651340246200562
vt 0.5551570057868958 0.48280298709869385
vt 0.7963230013847351 0.48280298709869385
vt 0.48249301314353943 0.9998430013656616
vt 0.00016199999663513154 0.9998430013656616
vt 0.00016199999663513154 0.9516119956970215
vt 0.48249301314353943 0.9998430013656616
vt 0.00016199999663513154 0.9516119956970215
vt 0.48249301314353943 0.9516069889068604
vt 0.7236539721488953 0.12315099686384201
vt 0.7236539721488953 0.00015700000221841037
vt 0.7718899846076965 0.00015700000221841037
vt 0.7236539721488953 0.12315099686384201
vt 0.7718899846076965 0.00015700000221841037
vt 0.7718870043754578 0.1231520026922226
vt 0.48249199986457825 0.8286129832267761
vt 0.48249301314353943 0.9516069889068604
vt 0.00016199999663513154 0.9516119956970215
vt 0.48249199986457825 0.8286129832267761
vt 0.00016199999663513154 0.9516119956970215
vt 0.0001610000035725534 0.8286179900169373
vt 0.19308899343013763 0.1231520026922226
vt 0.1930910050868988 0.00015799999528098851
vt 0.24132199585437775 0.00015700000221841037
vt 0.19308899343013763 0.1231520026922226
vt 0.24132199585437775 0.00015700000221841037
vt 0.24132199585437775 0.1231520026922226
vt 0.7236539721488953 0.41013801097869873
vt 0.7236539721488953 0.4824880063533783
vt 0.24132299423217773 0.4824889898300171
vt 0.7236539721488953 0.41013801097869873
vt 0.24132299423217773 0.4824889898300171
vt 0.24132299423217773 0.4101389944553375
vt 0.7236539721488953 0.4824880063533783
vt 0.7236539721488953 0.41013801097869873
vt 0.9648200273513794 0.41013801097869873
vt 0.7236539721488953 0.4824880063533783
vt 0.9648200273513794 0.41013801097869873
vt 0.9648200273513794 0.4824880063533783
vt 0.5551570057868958 0.9651340246200562
vt 0.4828070104122162 0.9651340246200562
vt 0.482807993888855 0.48280298709869385
vt 0.5551570057868958 0.9651340246200562
vt 0.482807993888855 0.48280298709869385
vt 0.5551570057868958 0.48280298709869385
vt 0.00015700000221841037 0.4824880063533783
vt 0.00015700000221841037 0.4101389944553375
vt 0.24132299423217773 0.4101389944553375
vt 0.00015700000221841037 0.4824880063533783
vt 0.24132299423217773 0.4101389944553375
vt 0.24132299423217773 0.4824889898300171
vt 0.7236539721488953 0.12315099686384201
vt 0.7236539721488953 0.41013801097869873
vt 0.24132299423217773 0.4101389944553375
vt 0.7236539721488953 0.12315099686384201
vt 0.24132299423217773 0.4101389944553375
vt 0.24132199585437775 0.1231520026922226
vt 0.7236539721488953 0.41013801097869873
vt 0.7236539721488953 0.12315099686384201
vt 0.7718870043754578 0.1231520026922226
vt 0.7236539721488953 0.41013801097869873
vt 0.7718870043754578 0.1231520026922226
vt 0.9648200273513794 0.41013801097869873
vt 0.4824880063533783 0.48280298709869385
vt 0.48249199986457825 0.8286129832267761
vt 0.0001610000035725534 0.8286179900169373
vt 0.4824880063533783 0.48280298709869385
vt 0.0001610000035725534 0.8286179900169373
vt 0.00015700000221841037 0.482807993888855
vt 0.00015700000221841037 0.4101389944553375
vt 0.19308899343013763 0.1231520026922226
vt 0.24132199585437775 0.1231520026922226
vt 0.00015700000221841037 0.4101389944553375
vt 0.24132199585437775 0.1231520026922226
vt 0.24132299423217773 0.4101389944553375
vt 0.7236539721488953 0.00015700000221841037
vt 0.7236539721488953 0.12315099686384201
vt 0.24132199585437775 0.1231520026922226
vt 0.7236539721488953 0.00015700000221841037
vt 0.24132199585437775 0.1231520026922226
vt 0.24132199585437775 0.00015700000221841037
vn 0 -1 0
vn 0 -1 0
vn 0 -1 0
vn 0 -1 0
vn 0 -1 0
vn 0 -1 0
vn 0 1 0
vn 0 1 0
vn 0 1 0
vn 0 1 0
vn 0 1 0
vn 0 1 0
vn 0.9999999999871669 -1.0065569905219509e-11 0.000005066167432167745
vn 0.9999999999871669 -1.0065569905219509e-11 0.000005066167432167745
vn 0.9999999999871669 -1.0065569905219509e-11 0.000005066167432167745
vn 0.9999999999980262 0.00000198682164409155 0
vn 0.9999999999980262 0.00000198682164409155 0
vn 0.9999999999980262 0.00000198682164409155 0
vn -0.000010013584867306908 -0.000019634491759239926 0.9999999997571074
vn -0.000010013584867306908 -0.000019634491759239926 0.9999999997571074
vn -0.000010013584867306908 -0.000019634491759239926 0.9999999997571074
vn 0 0.00001963447175134089 0.9999999998072437
vn 0 0.00001963447175134089 0.9999999998072437
vn 0 0.00001963447175134089 0.9999999998072437
vn -1 0 0
vn -1 0 0
vn -1 0 0
vn -1 0 0
vn -1 0 0
vn -1 0 0
vn 0 0 -1
vn 0 0 -1
vn 0 0 -1
vn 0 0 -1
vn 0 0 -1
vn 0 0 -1
vn 1 0 0
vn 1 0 0
vn 1 0 0
vn 1 0 0
vn 1 0 0
vn 1 0 0
vn 0 0 1
vn 0 0 1
vn 0 0 1
vn 0 0 1
vn 0 0 1
vn 0 0 1
vn -1 0 0
vn -1 0 0
vn -1 0 0
vn -1 0 0
vn -1 0 0
vn -1 0 0
vn 0 0 -1
vn 0 0 -1
vn 0 0 -1
vn 0 0 -1
vn 0 0 -1
vn 0 0 -1
vn 1 0 0
vn 1 0 0
vn 1 0 0
vn 1 0 0
vn 1 0 0
vn 1 0 0
vn 0 0.5579147927844266 0.8298982371304993
vn 0 0.5579147927844266 0.8298982371304993
vn 0 0.5579147927844266 0.8298982371304993
vn 0 0.5579147927844266 0.8298982371304993
vn 0 0.5579147927844266 0.8298982371304993
vn 0 0.5579147927844266 0.8298982371304993
vn -1 0 0
vn -1 0 0
vn -1 0 0
vn -1 0 0
vn -1 0 0
vn -1 0 0
vn 0 0.0000019868214167178743 -0.9999999999980262
vn 0 0.0000019868214167178743 -0.9999999999980262
vn 0 0.0000019868214167178743 -0.9999999999980262
vn 5.066394805907553e-7 0 -0.9999999999998717
vn 5.066394805907553e-7 0 -0.9999999999998717
vn 5.066394805907553e-7 0 -0.9999999999998717
f 1/1/1 2/2/2 3/3/3
f 4/4/4 5/5/5 6/6/6
f 7/7/7 8/8/8 9/9/9
f 10/10/10 11/11/11 12/12/12
f 13/13/13 14/14/14 15/15/15
f 16/16/16 17/17/17 18/18/18
f 19/19/19 20/20/20 21/21/21
f 22/22/22 23/23/23 24/24/24
f 25/25/25 26/26/26 27/27/27
f 28/28/28 29/29/29 30/30/30
f 31/31/31 32/32/32 33/33/33
f 34/34/34 35/35/35 36/36/36
f 37/37/37 38/38/38 39/39/39
f 40/40/40 41/41/41 42/42/42
f 43/43/43 44/44/44 45/45/45
f 46/46/46 47/47/47 48/48/48
f 49/49/49 50/50/50 51/51/51
f 52/52/52 53/53/53 54/54/54
f 55/55/55 56/56/56 57/57/57
f 58/58/58 59/59/59 60/60/60
f 61/61/61 62/62/62 63/63/63
f 64/64/64 65/65/65 66/66/66
f 67/67/67 68/68/68 69/69/69
f 70/70/70 71/71/71 72/72/72
f 73/73/73 74/74/74 75/75/75
f 76/76/76 77/77/77 78/78/78
f 79/79/79 80/80/80 81/81/81
f 82/82/82 83/83/83 84/84/84
